{
	"asset":{
		"generator":"Khronos glTF Blender I/O v4.4.0",
		"version":"2.0"
	},
	"scene":0,
	"scenes":[
		{
			"name":"Scene",
			"nodes":[
				0,
				1,
				2,
				3,
				4
			]
		}
	],
	"nodes":[
		{
			"mesh":0,
			"name":"Suzanne",
			"translation":[
				4.268487453460693,
				3.9284493923187256,
				0
			]
		},
		{
			"mesh":1,
			"name":"Cube",
			"scale":[
				4.624520778656006,
				1,
				1
			],
			"translation":[
				0,
				-7.312325954437256,
				0
			]
		},
		{
			"mesh":2,
			"name":"Icosphere",
			"scale":[
				2.4777393341064453,
				2.4777393341064453,
				2.4777393341064453
			],
			"translation":[
				-2.2406136989593506,
				5.430771827697754,
				-0.27543818950653076
			]
		},
		{
			"mesh":3,
			"name":"Cube.001",
			"scale":[
				4.624520778656006,
				1,
				1
			],
			"translation":[
				0.18690478801727295,
				-0.1737760454416275,
				-4.604715824127197
			]
		},
		{
			"mesh":4,
			"name":"Cube.002",
			"rotation":[
				0,
				0.9347282648086548,
				0,
				0.35536324977874756
			],
			"scale":[
				4.624520778656006,
				1,
				1
			],
			"translation":[
				1.901842713356018,
				-7.0713090896606445,
				2.4403300285339355
			]
		}
	],
	"meshes":[
		{
			"name":"Suzanne",
			"primitives":[
				{
					"attributes":{
						"POSITION":0,
						"NORMAL":1,
						"TEXCOORD_0":2
					},
					"indices":3
				}
			]
		},
		{
			"name":"Cube.002",
			"primitives":[
				{
					"attributes":{
						"POSITION":4,
						"NORMAL":5,
						"TEXCOORD_0":6
					},
					"indices":7
				}
			]
		},
		{
			"name":"Icosphere",
			"primitives":[
				{
					"attributes":{
						"POSITION":8,
						"NORMAL":9,
						"TEXCOORD_0":10
					},
					"indices":11
				}
			]
		},
		{
			"name":"Cube.003",
			"primitives":[
				{
					"attributes":{
						"POSITION":12,
						"NORMAL":13,
						"TEXCOORD_0":14
					},
					"indices":7
				}
			]
		},
		{
			"name":"Cube.004",
			"primitives":[
				{
					"attributes":{
						"POSITION":15,
						"NORMAL":16,
						"TEXCOORD_0":17
					},
					"indices":7
				}
			]
		}
	],
	"accessors":[
		{
			"bufferView":0,
			"componentType":5126,
			"count":1966,
			"max":[
				1.3671875,
				0.984375,
				0.8515625
			],
			"min":[
				-1.3671875,
				-0.984375,
				-0.8515625
			],
			"type":"VEC3"
		},
		{
			"bufferView":1,
			"componentType":5126,
			"count":1966,
			"type":"VEC3"
		},
		{
			"bufferView":2,
			"componentType":5126,
			"count":1966,
			"type":"VEC2"
		},
		{
			"bufferView":3,
			"componentType":5123,
			"count":2904,
			"type":"SCALAR"
		},
		{
			"bufferView":4,
			"componentType":5126,
			"count":24,
			"max":[
				1,
				1,
				1
			],
			"min":[
				-1,
				-1,
				-1
			],
			"type":"VEC3"
		},
		{
			"bufferView":5,
			"componentType":5126,
			"count":24,
			"type":"VEC3"
		},
		{
			"bufferView":6,
			"componentType":5126,
			"count":24,
			"type":"VEC2"
		},
		{
			"bufferView":7,
			"componentType":5123,
			"count":36,
			"type":"SCALAR"
		},
		{
			"bufferView":8,
			"componentType":5126,
			"count":240,
			"max":[
				0.9510578513145447,
				1,
				0.9999999403953552
			],
			"min":[
				-0.9510578513145447,
				-1,
				-0.9999999403953552
			],
			"type":"VEC3"
		},
		{
			"bufferView":9,
			"componentType":5126,
			"count":240,
			"type":"VEC3"
		},
		{
			"bufferView":10,
			"componentType":5126,
			"count":240,
			"type":"VEC2"
		},
		{
			"bufferView":11,
			"componentType":5123,
			"count":240,
			"type":"SCALAR"
		},
		{
			"bufferView":12,
			"componentType":5126,
			"count":24,
			"max":[
				1,
				1,
				1
			],
			"min":[
				-1,
				-1,
				-1
			],
			"type":"VEC3"
		},
		{
			"bufferView":13,
			"componentType":5126,
			"count":24,
			"type":"VEC3"
		},
		{
			"bufferView":14,
			"componentType":5126,
			"count":24,
			"type":"VEC2"
		},
		{
			"bufferView":15,
			"componentType":5126,
			"count":24,
			"max":[
				1,
				1,
				1
			],
			"min":[
				-1,
				-1,
				-1
			],
			"type":"VEC3"
		},
		{
			"bufferView":16,
			"componentType":5126,
			"count":24,
			"type":"VEC3"
		},
		{
			"bufferView":17,
			"componentType":5126,
			"count":24,
			"type":"VEC2"
		}
	],
	"bufferViews":[
		{
			"buffer":0,
			"byteLength":23592,
			"byteOffset":0,
			"target":34962
		},
		{
			"buffer":0,
			"byteLength":23592,
			"byteOffset":23592,
			"target":34962
		},
		{
			"buffer":0,
			"byteLength":15728,
			"byteOffset":47184,
			"target":34962
		},
		{
			"buffer":0,
			"byteLength":5808,
			"byteOffset":62912,
			"target":34963
		},
		{
			"buffer":0,
			"byteLength":288,
			"byteOffset":68720,
			"target":34962
		},
		{
			"buffer":0,
			"byteLength":288,
			"byteOffset":69008,
			"target":34962
		},
		{
			"buffer":0,
			"byteLength":192,
			"byteOffset":69296,
			"target":34962
		},
		{
			"buffer":0,
			"byteLength":72,
			"byteOffset":69488,
			"target":34963
		},
		{
			"buffer":0,
			"byteLength":2880,
			"byteOffset":69560,
			"target":34962
		},
		{
			"buffer":0,
			"byteLength":2880,
			"byteOffset":72440,
			"target":34962
		},
		{
			"buffer":0,
			"byteLength":1920,
			"byteOffset":75320,
			"target":34962
		},
		{
			"buffer":0,
			"byteLength":480,
			"byteOffset":77240,
			"target":34963
		},
		{
			"buffer":0,
			"byteLength":288,
			"byteOffset":77720,
			"target":34962
		},
		{
			"buffer":0,
			"byteLength":288,
			"byteOffset":78008,
			"target":34962
		},
		{
			"buffer":0,
			"byteLength":192,
			"byteOffset":78296,
			"target":34962
		},
		{
			"buffer":0,
			"byteLength":288,
			"byteOffset":78488,
			"target":34962
		},
		{
			"buffer":0,
			"byteLength":288,
			"byteOffset":78776,
			"target":34962
		},
		{
			"buffer":0,
			"byteLength":192,
			"byteOffset":79064,
			"target":34962
		}
	],
	"buffers":[
		{
			"byteLength":79256,
			"uri":"DefaultScene.bin"
		}
	]
}
