{
	"asset":{
		"generator":"Khronos glTF Blender I/O v4.1.63",
		"version":"2.0"
	},
	"scene":0,
	"scenes":[
		{
			"name":"Scene",
			"nodes":[
				14,
				15,
				16,
				17,
				18
			]
		}
	],
	"nodes":[
		{
			"mesh":0,
			"name":"Cube.001",
			"scale":[
				0.12999999523162842,
				8.479998588562012,
				0.21000003814697266
			],
			"translation":[
				199.90318298339844,
				-103.81439971923828,
				282.9555969238281
			]
		},
		{
			"mesh":1,
			"name":"Cube.002",
			"scale":[
				0.27000004053115845,
				0.25,
				8.149999618530273
			],
			"translation":[
				119.62725830078125,
				-372.56573486328125,
				-82.52555847167969
			]
		},
		{
			"mesh":2,
			"name":"Cube.003",
			"scale":[
				0.20000003278255463,
				0.2200000286102295,
				3.2200000286102295
			],
			"translation":[
				-257.1998596191406,
				283.6133117675781,
				-242.3300018310547
			]
		},
		{
			"mesh":3,
			"name":"Cube.004",
			"scale":[
				2.3299999237060547,
				2.25,
				0.11999999731779099
			],
			"translation":[
				-50.65736770629883,
				236.4371795654297,
				261.1632385253906
			]
		},
		{
			"mesh":4,
			"name":"Cube.006",
			"rotation":[
				0.33178213238716125,
				0.33642303943634033,
				-0.4660603106021881,
				0.7480160593986511
			],
			"scale":[
				0.11323562264442444,
				0.10484778881072998,
				3.1075174808502197
			],
			"translation":[
				19.764549255371094,
				-336.3653259277344,
				-134.49673461914062
			]
		},
		{
			"mesh":5,
			"name":"Cube.007",
			"rotation":[
				0.33178213238716125,
				0.33642303943634033,
				-0.4660603106021881,
				0.7480160593986511
			],
			"scale":[
				0.11323562264442444,
				0.10484778881072998,
				3.1075174808502197
			],
			"translation":[
				-63.46750259399414,
				-323.41180419921875,
				-184.39544677734375
			]
		},
		{
			"mesh":6,
			"name":"Cube.008",
			"rotation":[
				0.33178213238716125,
				0.33642303943634033,
				-0.4660603106021881,
				0.7480160593986511
			],
			"scale":[
				0.11323562264442444,
				0.10484778881072998,
				3.1075174808502197
			],
			"translation":[
				-146.69955444335938,
				-310.458251953125,
				-234.29415893554688
			]
		},
		{
			"mesh":7,
			"name":"Cube.009",
			"rotation":[
				0.33178213238716125,
				0.33642303943634033,
				-0.4660603106021881,
				0.7480160593986511
			],
			"scale":[
				0.11323562264442444,
				0.10484778881072998,
				3.1075174808502197
			],
			"translation":[
				-229.93161010742188,
				-297.5047607421875,
				-284.19287109375
			]
		},
		{
			"mesh":8,
			"name":"Cube.010",
			"rotation":[
				0.33178213238716125,
				0.33642303943634033,
				-0.4660603106021881,
				0.7480160593986511
			],
			"scale":[
				0.11323562264442444,
				0.10484778881072998,
				3.1075174808502197
			],
			"translation":[
				-313.1636657714844,
				-284.5512390136719,
				-334.091552734375
			]
		},
		{
			"mesh":9,
			"name":"Cube.011",
			"rotation":[
				0.33178213238716125,
				0.33642303943634033,
				-0.4660603106021881,
				0.7480160593986511
			],
			"scale":[
				0.11323562264442444,
				0.10484778881072998,
				3.1075174808502197
			],
			"translation":[
				-396.3957214355469,
				-271.59771728515625,
				-383.99029541015625
			]
		},
		{
			"mesh":10,
			"name":"Cube.015",
			"rotation":[
				-0.17889443039894104,
				-0.13435415923595428,
				0.20291359722614288,
				0.9532952308654785
			],
			"scale":[
				0.20000001788139343,
				0.2200000137090683,
				3.2200000286102295
			],
			"translation":[
				-407.2116394042969,
				228.55953979492188,
				-270.185546875
			]
		},
		{
			"mesh":11,
			"name":"Cube.016",
			"rotation":[
				-0.17889443039894104,
				-0.13435415923595428,
				0.20291359722614288,
				0.9532952308654785
			],
			"scale":[
				0.20000001788139343,
				0.2200000137090683,
				3.2200000286102295
			],
			"translation":[
				-451.5423889160156,
				297.558349609375,
				-263.5846252441406
			]
		},
		{
			"mesh":12,
			"name":"Cube.017",
			"rotation":[
				-0.17889443039894104,
				-0.13435415923595428,
				0.20291359722614288,
				0.9532952308654785
			],
			"scale":[
				0.20000001788139343,
				0.2200000137090683,
				3.2200000286102295
			],
			"translation":[
				-469.9835205078125,
				391.5505676269531,
				-217.61183166503906
			]
		},
		{
			"mesh":13,
			"name":"Cube.018",
			"rotation":[
				-0.17889443039894104,
				-0.13435415923595428,
				0.20291359722614288,
				0.9532952308654785
			],
			"scale":[
				0.20000001788139343,
				0.2200000137090683,
				3.2200000286102295
			],
			"translation":[
				-472.49755859375,
				499.21484375,
				-148.5458984375
			]
		},
		{
			"children":[
				0,
				1,
				2,
				3,
				4,
				5,
				6,
				7,
				8,
				9,
				10,
				11,
				12,
				13
			],
			"mesh":14,
			"name":"Cube",
			"rotation":[
				0.70710688829422,
				0,
				0,
				0.7071066498756409
			],
			"scale":[
				0.009999999776482582,
				0.009999999776482582,
				0.009999999776482582
			]
		},
		{
			"mesh":15,
			"name":"Cube.005",
			"rotation":[
				0.7912862300872803,
				0.2797328233718872,
				-0.003788318485021591,
				0.5436923503875732
			],
			"scale":[
				0.0026046179700642824,
				0.0026046179700642824,
				0.0026046179700642824
			],
			"translation":[
				0.017471790313720703,
				1.6274065971374512,
				0.020279645919799805
			]
		},
		{
			"mesh":16,
			"name":"Cube.012",
			"rotation":[
				-0.7869647741317749,
				-0.6094225645065308,
				0.0948529988527298,
				0.017136508598923683
			],
			"scale":[
				0.0015591613482683897,
				0.0015591612318530679,
				0.0015591608826071024
			],
			"translation":[
				1.720688819885254,
				-0.01413390040397644,
				0.06807780265808105
			]
		},
		{
			"mesh":17,
			"name":"Cube.013",
			"rotation":[
				0.8045489192008972,
				0.5857754349708557,
				-0.08672457933425903,
				0.04524388536810875
			],
			"scale":[
				0.003988958429545164,
				0.003988957963883877,
				0.003988957963883877
			],
			"translation":[
				-0.10722315311431885,
				-0.03201769292354584,
				1.6120927333831787
			]
		},
		{
			"mesh":18,
			"name":"Cube.014",
			"rotation":[
				0.2761247456073761,
				0.24041137099266052,
				-0.43256738781929016,
				0.8239192962646484
			],
			"scale":[
				0.0026046179700642824,
				0.0026046179700642824,
				0.0026046179700642824
			],
			"translation":[
				-1.5848290920257568,
				-0.20271331071853638,
				0.10266464948654175
			]
		}
	],
	"materials":[
		{
			"doubleSided":true,
			"name":"Material.Blue",
			"pbrMetallicRoughness":{
				"baseColorTexture":{
					"index":0
				},
				"metallicFactor":0,
				"roughnessFactor":0.5
			}
		},
		{
			"doubleSided":true,
			"name":"Material.Orange",
			"pbrMetallicRoughness":{
				"baseColorTexture":{
					"index":1
				},
				"metallicFactor":0,
				"roughnessFactor":0.5
			}
		},
		{
			"doubleSided":true,
			"name":"Material.Purple",
			"pbrMetallicRoughness":{
				"baseColorTexture":{
					"index":2
				},
				"metallicFactor":0,
				"roughnessFactor":0.5
			}
		},
		{
			"doubleSided":true,
			"name":"Material.Red",
			"pbrMetallicRoughness":{
				"baseColorTexture":{
					"index":3
				},
				"metallicFactor":0,
				"roughnessFactor":0.5
			}
		},
		{
			"doubleSided":true,
			"name":"Material.LightGreen",
			"pbrMetallicRoughness":{
				"baseColorTexture":{
					"index":4
				},
				"metallicFactor":0,
				"roughnessFactor":0.5
			}
		}
	],
	"meshes":[
		{
			"name":"Cube.002",
			"primitives":[
				{
					"attributes":{
						"POSITION":0,
						"NORMAL":1,
						"TEXCOORD_0":2
					},
					"indices":3,
					"material":0
				}
			]
		},
		{
			"name":"Cube.003",
			"primitives":[
				{
					"attributes":{
						"POSITION":4,
						"NORMAL":5,
						"TEXCOORD_0":6
					},
					"indices":3,
					"material":1
				}
			]
		},
		{
			"name":"Cube.004",
			"primitives":[
				{
					"attributes":{
						"POSITION":7,
						"NORMAL":8,
						"TEXCOORD_0":9
					},
					"indices":3,
					"material":2
				}
			]
		},
		{
			"name":"Cube.005",
			"primitives":[
				{
					"attributes":{
						"POSITION":10,
						"NORMAL":11,
						"TEXCOORD_0":12
					},
					"indices":3,
					"material":3
				}
			]
		},
		{
			"name":"Cube.007",
			"primitives":[
				{
					"attributes":{
						"POSITION":13,
						"NORMAL":14,
						"TEXCOORD_0":15
					},
					"indices":3,
					"material":1
				}
			]
		},
		{
			"name":"Cube.008",
			"primitives":[
				{
					"attributes":{
						"POSITION":16,
						"NORMAL":17,
						"TEXCOORD_0":18
					},
					"indices":3,
					"material":1
				}
			]
		},
		{
			"name":"Cube.009",
			"primitives":[
				{
					"attributes":{
						"POSITION":19,
						"NORMAL":20,
						"TEXCOORD_0":21
					},
					"indices":3,
					"material":1
				}
			]
		},
		{
			"name":"Cube.010",
			"primitives":[
				{
					"attributes":{
						"POSITION":22,
						"NORMAL":23,
						"TEXCOORD_0":24
					},
					"indices":3,
					"material":1
				}
			]
		},
		{
			"name":"Cube.011",
			"primitives":[
				{
					"attributes":{
						"POSITION":25,
						"NORMAL":26,
						"TEXCOORD_0":27
					},
					"indices":3,
					"material":1
				}
			]
		},
		{
			"name":"Cube.012",
			"primitives":[
				{
					"attributes":{
						"POSITION":28,
						"NORMAL":29,
						"TEXCOORD_0":30
					},
					"indices":3,
					"material":1
				}
			]
		},
		{
			"name":"Cube.016",
			"primitives":[
				{
					"attributes":{
						"POSITION":31,
						"NORMAL":32,
						"TEXCOORD_0":33
					},
					"indices":3,
					"material":2
				}
			]
		},
		{
			"name":"Cube.017",
			"primitives":[
				{
					"attributes":{
						"POSITION":34,
						"NORMAL":35,
						"TEXCOORD_0":36
					},
					"indices":3,
					"material":2
				}
			]
		},
		{
			"name":"Cube.018",
			"primitives":[
				{
					"attributes":{
						"POSITION":37,
						"NORMAL":38,
						"TEXCOORD_0":39
					},
					"indices":3,
					"material":2
				}
			]
		},
		{
			"name":"Cube.019",
			"primitives":[
				{
					"attributes":{
						"POSITION":40,
						"NORMAL":41,
						"TEXCOORD_0":42
					},
					"indices":3,
					"material":2
				}
			]
		},
		{
			"name":"Cube.001",
			"primitives":[
				{
					"attributes":{
						"POSITION":43,
						"NORMAL":44,
						"TEXCOORD_0":45
					},
					"indices":3,
					"material":4
				}
			]
		},
		{
			"name":"Cube.006",
			"primitives":[
				{
					"attributes":{
						"POSITION":46,
						"NORMAL":47,
						"TEXCOORD_0":48
					},
					"indices":3,
					"material":4
				}
			]
		},
		{
			"name":"Cube.013",
			"primitives":[
				{
					"attributes":{
						"POSITION":49,
						"NORMAL":50,
						"TEXCOORD_0":51
					},
					"indices":3,
					"material":4
				}
			]
		},
		{
			"name":"Cube.014",
			"primitives":[
				{
					"attributes":{
						"POSITION":52,
						"NORMAL":53,
						"TEXCOORD_0":54
					},
					"indices":3,
					"material":4
				}
			]
		},
		{
			"name":"Cube.015",
			"primitives":[
				{
					"attributes":{
						"POSITION":55,
						"NORMAL":56,
						"TEXCOORD_0":57
					},
					"indices":3,
					"material":4
				}
			]
		}
	],
	"textures":[
		{
			"sampler":0,
			"source":0
		},
		{
			"sampler":0,
			"source":1
		},
		{
			"sampler":0,
			"source":2
		},
		{
			"sampler":0,
			"source":3
		},
		{
			"sampler":0,
			"source":4
		}
	],
	"images":[
		{
			"mimeType":"image/png",
			"name":"T_Blue_D",
			"uri":"T_Blue_D.png"
		},
		{
			"mimeType":"image/png",
			"name":"T_Orange_D",
			"uri":"T_Orange_D.png"
		},
		{
			"mimeType":"image/png",
			"name":"T_Purple_D",
			"uri":"T_Purple_D.png"
		},
		{
			"mimeType":"image/png",
			"name":"T_Red_D",
			"uri":"T_Red_D.png"
		},
		{
			"mimeType":"image/png",
			"name":"T_LightGreen_D",
			"uri":"T_LightGreen_D.png"
		}
	],
	"accessors":[
		{
			"bufferView":0,
			"componentType":5126,
			"count":24,
			"max":[
				100,
				100,
				100
			],
			"min":[
				-100,
				-100,
				-100
			],
			"type":"VEC3"
		},
		{
			"bufferView":1,
			"componentType":5126,
			"count":24,
			"type":"VEC3"
		},
		{
			"bufferView":2,
			"componentType":5126,
			"count":24,
			"type":"VEC2"
		},
		{
			"bufferView":3,
			"componentType":5123,
			"count":36,
			"type":"SCALAR"
		},
		{
			"bufferView":4,
			"componentType":5126,
			"count":24,
			"max":[
				100,
				100,
				100
			],
			"min":[
				-100,
				-100,
				-100
			],
			"type":"VEC3"
		},
		{
			"bufferView":5,
			"componentType":5126,
			"count":24,
			"type":"VEC3"
		},
		{
			"bufferView":6,
			"componentType":5126,
			"count":24,
			"type":"VEC2"
		},
		{
			"bufferView":7,
			"componentType":5126,
			"count":24,
			"max":[
				100,
				100,
				100
			],
			"min":[
				-100,
				-100,
				-100
			],
			"type":"VEC3"
		},
		{
			"bufferView":8,
			"componentType":5126,
			"count":24,
			"type":"VEC3"
		},
		{
			"bufferView":9,
			"componentType":5126,
			"count":24,
			"type":"VEC2"
		},
		{
			"bufferView":10,
			"componentType":5126,
			"count":24,
			"max":[
				100,
				100,
				100
			],
			"min":[
				-100,
				-100,
				-100
			],
			"type":"VEC3"
		},
		{
			"bufferView":11,
			"componentType":5126,
			"count":24,
			"type":"VEC3"
		},
		{
			"bufferView":12,
			"componentType":5126,
			"count":24,
			"type":"VEC2"
		},
		{
			"bufferView":13,
			"componentType":5126,
			"count":24,
			"max":[
				100,
				100,
				100
			],
			"min":[
				-100,
				-100,
				-100
			],
			"type":"VEC3"
		},
		{
			"bufferView":14,
			"componentType":5126,
			"count":24,
			"type":"VEC3"
		},
		{
			"bufferView":15,
			"componentType":5126,
			"count":24,
			"type":"VEC2"
		},
		{
			"bufferView":16,
			"componentType":5126,
			"count":24,
			"max":[
				100,
				100,
				100
			],
			"min":[
				-100,
				-100,
				-100
			],
			"type":"VEC3"
		},
		{
			"bufferView":17,
			"componentType":5126,
			"count":24,
			"type":"VEC3"
		},
		{
			"bufferView":18,
			"componentType":5126,
			"count":24,
			"type":"VEC2"
		},
		{
			"bufferView":19,
			"componentType":5126,
			"count":24,
			"max":[
				100,
				100,
				100
			],
			"min":[
				-100,
				-100,
				-100
			],
			"type":"VEC3"
		},
		{
			"bufferView":20,
			"componentType":5126,
			"count":24,
			"type":"VEC3"
		},
		{
			"bufferView":21,
			"componentType":5126,
			"count":24,
			"type":"VEC2"
		},
		{
			"bufferView":22,
			"componentType":5126,
			"count":24,
			"max":[
				100,
				100,
				100
			],
			"min":[
				-100,
				-100,
				-100
			],
			"type":"VEC3"
		},
		{
			"bufferView":23,
			"componentType":5126,
			"count":24,
			"type":"VEC3"
		},
		{
			"bufferView":24,
			"componentType":5126,
			"count":24,
			"type":"VEC2"
		},
		{
			"bufferView":25,
			"componentType":5126,
			"count":24,
			"max":[
				100,
				100,
				100
			],
			"min":[
				-100,
				-100,
				-100
			],
			"type":"VEC3"
		},
		{
			"bufferView":26,
			"componentType":5126,
			"count":24,
			"type":"VEC3"
		},
		{
			"bufferView":27,
			"componentType":5126,
			"count":24,
			"type":"VEC2"
		},
		{
			"bufferView":28,
			"componentType":5126,
			"count":24,
			"max":[
				100,
				100,
				100
			],
			"min":[
				-100,
				-100,
				-100
			],
			"type":"VEC3"
		},
		{
			"bufferView":29,
			"componentType":5126,
			"count":24,
			"type":"VEC3"
		},
		{
			"bufferView":30,
			"componentType":5126,
			"count":24,
			"type":"VEC2"
		},
		{
			"bufferView":31,
			"componentType":5126,
			"count":24,
			"max":[
				100,
				100,
				100
			],
			"min":[
				-100,
				-100,
				-100
			],
			"type":"VEC3"
		},
		{
			"bufferView":32,
			"componentType":5126,
			"count":24,
			"type":"VEC3"
		},
		{
			"bufferView":33,
			"componentType":5126,
			"count":24,
			"type":"VEC2"
		},
		{
			"bufferView":34,
			"componentType":5126,
			"count":24,
			"max":[
				100,
				100,
				100
			],
			"min":[
				-100,
				-100,
				-100
			],
			"type":"VEC3"
		},
		{
			"bufferView":35,
			"componentType":5126,
			"count":24,
			"type":"VEC3"
		},
		{
			"bufferView":36,
			"componentType":5126,
			"count":24,
			"type":"VEC2"
		},
		{
			"bufferView":37,
			"componentType":5126,
			"count":24,
			"max":[
				100,
				100,
				100
			],
			"min":[
				-100,
				-100,
				-100
			],
			"type":"VEC3"
		},
		{
			"bufferView":38,
			"componentType":5126,
			"count":24,
			"type":"VEC3"
		},
		{
			"bufferView":39,
			"componentType":5126,
			"count":24,
			"type":"VEC2"
		},
		{
			"bufferView":40,
			"componentType":5126,
			"count":24,
			"max":[
				100,
				100,
				100
			],
			"min":[
				-100,
				-100,
				-100
			],
			"type":"VEC3"
		},
		{
			"bufferView":41,
			"componentType":5126,
			"count":24,
			"type":"VEC3"
		},
		{
			"bufferView":42,
			"componentType":5126,
			"count":24,
			"type":"VEC2"
		},
		{
			"bufferView":43,
			"componentType":5126,
			"count":24,
			"max":[
				100,
				100,
				100
			],
			"min":[
				-100,
				-100,
				-100
			],
			"type":"VEC3"
		},
		{
			"bufferView":44,
			"componentType":5126,
			"count":24,
			"type":"VEC3"
		},
		{
			"bufferView":45,
			"componentType":5126,
			"count":24,
			"type":"VEC2"
		},
		{
			"bufferView":46,
			"componentType":5126,
			"count":24,
			"max":[
				100,
				100,
				100
			],
			"min":[
				-100,
				-100,
				-100
			],
			"type":"VEC3"
		},
		{
			"bufferView":47,
			"componentType":5126,
			"count":24,
			"type":"VEC3"
		},
		{
			"bufferView":48,
			"componentType":5126,
			"count":24,
			"type":"VEC2"
		},
		{
			"bufferView":49,
			"componentType":5126,
			"count":24,
			"max":[
				100,
				100,
				100
			],
			"min":[
				-100,
				-100,
				-100
			],
			"type":"VEC3"
		},
		{
			"bufferView":50,
			"componentType":5126,
			"count":24,
			"type":"VEC3"
		},
		{
			"bufferView":51,
			"componentType":5126,
			"count":24,
			"type":"VEC2"
		},
		{
			"bufferView":52,
			"componentType":5126,
			"count":24,
			"max":[
				100,
				100,
				100
			],
			"min":[
				-100,
				-100,
				-100
			],
			"type":"VEC3"
		},
		{
			"bufferView":53,
			"componentType":5126,
			"count":24,
			"type":"VEC3"
		},
		{
			"bufferView":54,
			"componentType":5126,
			"count":24,
			"type":"VEC2"
		},
		{
			"bufferView":55,
			"componentType":5126,
			"count":24,
			"max":[
				100,
				100,
				100
			],
			"min":[
				-100,
				-100,
				-100
			],
			"type":"VEC3"
		},
		{
			"bufferView":56,
			"componentType":5126,
			"count":24,
			"type":"VEC3"
		},
		{
			"bufferView":57,
			"componentType":5126,
			"count":24,
			"type":"VEC2"
		}
	],
	"bufferViews":[
		{
			"buffer":0,
			"byteLength":288,
			"byteOffset":0,
			"target":34962
		},
		{
			"buffer":0,
			"byteLength":288,
			"byteOffset":288,
			"target":34962
		},
		{
			"buffer":0,
			"byteLength":192,
			"byteOffset":576,
			"target":34962
		},
		{
			"buffer":0,
			"byteLength":72,
			"byteOffset":768,
			"target":34963
		},
		{
			"buffer":0,
			"byteLength":288,
			"byteOffset":840,
			"target":34962
		},
		{
			"buffer":0,
			"byteLength":288,
			"byteOffset":1128,
			"target":34962
		},
		{
			"buffer":0,
			"byteLength":192,
			"byteOffset":1416,
			"target":34962
		},
		{
			"buffer":0,
			"byteLength":288,
			"byteOffset":1608,
			"target":34962
		},
		{
			"buffer":0,
			"byteLength":288,
			"byteOffset":1896,
			"target":34962
		},
		{
			"buffer":0,
			"byteLength":192,
			"byteOffset":2184,
			"target":34962
		},
		{
			"buffer":0,
			"byteLength":288,
			"byteOffset":2376,
			"target":34962
		},
		{
			"buffer":0,
			"byteLength":288,
			"byteOffset":2664,
			"target":34962
		},
		{
			"buffer":0,
			"byteLength":192,
			"byteOffset":2952,
			"target":34962
		},
		{
			"buffer":0,
			"byteLength":288,
			"byteOffset":3144,
			"target":34962
		},
		{
			"buffer":0,
			"byteLength":288,
			"byteOffset":3432,
			"target":34962
		},
		{
			"buffer":0,
			"byteLength":192,
			"byteOffset":3720,
			"target":34962
		},
		{
			"buffer":0,
			"byteLength":288,
			"byteOffset":3912,
			"target":34962
		},
		{
			"buffer":0,
			"byteLength":288,
			"byteOffset":4200,
			"target":34962
		},
		{
			"buffer":0,
			"byteLength":192,
			"byteOffset":4488,
			"target":34962
		},
		{
			"buffer":0,
			"byteLength":288,
			"byteOffset":4680,
			"target":34962
		},
		{
			"buffer":0,
			"byteLength":288,
			"byteOffset":4968,
			"target":34962
		},
		{
			"buffer":0,
			"byteLength":192,
			"byteOffset":5256,
			"target":34962
		},
		{
			"buffer":0,
			"byteLength":288,
			"byteOffset":5448,
			"target":34962
		},
		{
			"buffer":0,
			"byteLength":288,
			"byteOffset":5736,
			"target":34962
		},
		{
			"buffer":0,
			"byteLength":192,
			"byteOffset":6024,
			"target":34962
		},
		{
			"buffer":0,
			"byteLength":288,
			"byteOffset":6216,
			"target":34962
		},
		{
			"buffer":0,
			"byteLength":288,
			"byteOffset":6504,
			"target":34962
		},
		{
			"buffer":0,
			"byteLength":192,
			"byteOffset":6792,
			"target":34962
		},
		{
			"buffer":0,
			"byteLength":288,
			"byteOffset":6984,
			"target":34962
		},
		{
			"buffer":0,
			"byteLength":288,
			"byteOffset":7272,
			"target":34962
		},
		{
			"buffer":0,
			"byteLength":192,
			"byteOffset":7560,
			"target":34962
		},
		{
			"buffer":0,
			"byteLength":288,
			"byteOffset":7752,
			"target":34962
		},
		{
			"buffer":0,
			"byteLength":288,
			"byteOffset":8040,
			"target":34962
		},
		{
			"buffer":0,
			"byteLength":192,
			"byteOffset":8328,
			"target":34962
		},
		{
			"buffer":0,
			"byteLength":288,
			"byteOffset":8520,
			"target":34962
		},
		{
			"buffer":0,
			"byteLength":288,
			"byteOffset":8808,
			"target":34962
		},
		{
			"buffer":0,
			"byteLength":192,
			"byteOffset":9096,
			"target":34962
		},
		{
			"buffer":0,
			"byteLength":288,
			"byteOffset":9288,
			"target":34962
		},
		{
			"buffer":0,
			"byteLength":288,
			"byteOffset":9576,
			"target":34962
		},
		{
			"buffer":0,
			"byteLength":192,
			"byteOffset":9864,
			"target":34962
		},
		{
			"buffer":0,
			"byteLength":288,
			"byteOffset":10056,
			"target":34962
		},
		{
			"buffer":0,
			"byteLength":288,
			"byteOffset":10344,
			"target":34962
		},
		{
			"buffer":0,
			"byteLength":192,
			"byteOffset":10632,
			"target":34962
		},
		{
			"buffer":0,
			"byteLength":288,
			"byteOffset":10824,
			"target":34962
		},
		{
			"buffer":0,
			"byteLength":288,
			"byteOffset":11112,
			"target":34962
		},
		{
			"buffer":0,
			"byteLength":192,
			"byteOffset":11400,
			"target":34962
		},
		{
			"buffer":0,
			"byteLength":288,
			"byteOffset":11592,
			"target":34962
		},
		{
			"buffer":0,
			"byteLength":288,
			"byteOffset":11880,
			"target":34962
		},
		{
			"buffer":0,
			"byteLength":192,
			"byteOffset":12168,
			"target":34962
		},
		{
			"buffer":0,
			"byteLength":288,
			"byteOffset":12360,
			"target":34962
		},
		{
			"buffer":0,
			"byteLength":288,
			"byteOffset":12648,
			"target":34962
		},
		{
			"buffer":0,
			"byteLength":192,
			"byteOffset":12936,
			"target":34962
		},
		{
			"buffer":0,
			"byteLength":288,
			"byteOffset":13128,
			"target":34962
		},
		{
			"buffer":0,
			"byteLength":288,
			"byteOffset":13416,
			"target":34962
		},
		{
			"buffer":0,
			"byteLength":192,
			"byteOffset":13704,
			"target":34962
		},
		{
			"buffer":0,
			"byteLength":288,
			"byteOffset":13896,
			"target":34962
		},
		{
			"buffer":0,
			"byteLength":288,
			"byteOffset":14184,
			"target":34962
		},
		{
			"buffer":0,
			"byteLength":192,
			"byteOffset":14472,
			"target":34962
		}
	],
	"samplers":[
		{
			"magFilter":9729,
			"minFilter":9987
		}
	],
	"buffers":[
		{
			"byteLength":14664,
			"uri":"SM_Deccer_Cubes_Textured_Complex.bin"
		}
	]
}
